<svg width="227" height="32" viewBox="0 0 227 32" fill="none" xmlns="http://www.w3.org/2000/svg">
<g clip-path="url(#clip0_55_195)">
<path d="M227 1.09904H221.462V30.724H227V1.09904Z" fill="#F2F3F7"/>
<path d="M151.843 30.7376V1.09904H164.407C171.648 1.42578 176.918 6.21805 177.883 13.5018C179.076 22.5281 173.78 30.3156 164.514 30.724H151.843V30.7376ZM157.381 25.3463C161.43 25.1421 166.07 26.1904 169.449 23.3722C173.606 19.9005 173.525 11.7863 169.342 8.36913C167.826 7.13022 166.016 6.58564 164.085 6.43588H157.381V25.3463Z" fill="#F2F3F7"/>
<path d="M187.055 30.7376L200.276 1.09904L206.297 1.15349L219.397 30.724H213.35L210.802 25.1693H195.61L193.129 30.724H187.055V30.7376ZM208.603 19.9005L203.28 7.42974L197.849 19.9005H208.59H208.603Z" fill="#F2F3F7"/>
<path d="M97.0673 1.15349V13.6379H111.442V1.15349H116.98V30.792H111.442V18.7978H97.0673V30.792H91.5294V1.15349H97.0673Z" fill="#F2F3F7"/>
<path d="M43.3511 18.5799V25.1693H59.7637L59.8441 25.251V30.724H37.8132V13.3792L37.8937 13.2975H59.1603L59.2407 13.3792V18.4846L59.1603 18.5663H43.3377L43.3511 18.5799Z" fill="#F2F3F7"/>
<path d="M88.1638 1.09904V6.21805H78.8848V30.7376H73.3603V6.21805H64.0277V1.09904H88.1638Z" fill="#F2F3F7"/>
<path d="M7.2006 1.56192C7.42856 1.79337 7.57606 2.18819 7.60287 2.50132L7.62969 7.41612L13.1676 12.2356C14.9912 12.0314 16.855 12.222 18.6921 12.1403L24.6993 7.07576L24.8065 6.85793V2.24264C24.954 1.64361 25.3965 1.26241 25.9865 1.16711C27.609 1.24879 29.4192 1.00373 31.0149 1.16711C31.6585 1.22156 32.2351 1.67084 32.2887 2.35156C32.4362 4.06697 32.1815 6.04106 32.2753 7.78371C32.1412 8.32828 31.7256 8.7231 31.1758 8.80479L25.839 8.84563L19.9525 13.8149L19.9257 18.6752C19.7916 19.3559 19.2687 19.7508 18.5982 19.8052C17.0428 19.9414 15.2862 19.6963 13.7174 19.8052C13.1005 19.7916 12.524 19.3559 12.3899 18.7297V14.3186L6.08766 8.84563L1.17999 8.8184C0.53636 8.66864 0.120683 8.20575 0.0670471 7.53865C-0.0670424 5.90492 0.174319 4.08059 0.0670471 2.41963C0.16091 1.67084 0.670449 1.24879 1.39453 1.18072C2.65497 1.05819 4.89427 1.08542 6.16812 1.18072C6.54357 1.20795 6.93243 1.31686 7.2006 1.58915V1.56192Z" fill="#00A0F6"/>
<path d="M59.8441 1.09904H37.8132V6.5448H59.8441V1.09904Z" fill="white"/>
<path d="M13.5564 1.18072C15.1789 1.27602 17.0428 1.00373 18.6384 1.16711C19.2955 1.23518 19.8318 1.67084 19.9123 2.35156C19.805 4.05336 20.0598 5.95938 19.9123 7.63395C19.8586 8.2466 19.3223 8.7231 18.7457 8.8184C17.083 8.70949 15.2326 8.96816 13.5833 8.8184C12.9799 8.76394 12.4301 8.31467 12.363 7.68841C12.1753 6.00022 12.4971 3.97167 12.363 2.25626C12.4837 1.68445 12.9799 1.26241 13.543 1.19434L13.5564 1.18072Z" fill="white"/>
<path d="M1.12635 12.1675C2.80247 12.2628 4.73335 11.9906 6.36925 12.1675C7.0531 12.2356 7.52241 12.7802 7.58946 13.4609C7.50901 15.0538 7.69673 16.7692 7.58946 18.3485C7.53582 19.1926 7.09333 19.7099 6.26197 19.8052C4.70654 19.7235 3.03042 19.9141 1.48839 19.8052C0.697263 19.7508 0.174314 19.3832 0.0536336 18.5663C0.174314 16.919 -0.107274 15.0266 0.0536336 13.4065C0.120678 12.7802 0.536356 12.3309 1.12635 12.1812V12.1675Z" fill="white"/>
<path d="M13.3821 23.1544C15.0851 23.2769 17.1232 22.9502 18.7993 23.1544C19.3625 23.2224 19.8318 23.7126 19.9123 24.2844C19.805 25.9862 20.0598 27.8786 19.9123 29.5668C19.8586 30.1794 19.3893 30.6559 18.7993 30.7512C17.0964 30.6151 15.1521 30.9282 13.476 30.7512C12.953 30.6968 12.4301 30.2066 12.363 29.6757C12.1753 27.9603 12.4971 25.9317 12.363 24.1891C12.4703 23.6853 12.8726 23.2905 13.3687 23.1816L13.3821 23.1544Z" fill="white"/>
<path d="M25.8659 12.1675C27.542 12.2628 29.4729 11.9906 31.1087 12.1675C31.7122 12.222 32.1815 12.6849 32.2753 13.2975C32.1546 15.013 32.4228 16.9326 32.2753 18.6344C32.2083 19.3287 31.5915 19.7916 30.9478 19.8188C29.379 19.7099 27.6626 19.955 26.1206 19.8188C25.4502 19.7644 24.8736 19.3423 24.7931 18.6344C24.6188 16.9598 24.9272 14.9585 24.7931 13.2567C24.8602 12.7802 25.3965 12.2628 25.8659 12.1948V12.1675Z" fill="white"/>
<path d="M1.07272 23.1544C2.78906 23.2633 4.80041 22.9638 6.48993 23.1544C7.14697 23.2224 7.54924 23.8759 7.60287 24.5022C7.71015 25.8092 7.71015 28.0964 7.60287 29.4034C7.54924 30.0841 7.16038 30.6151 6.48993 30.7512C4.80041 30.6151 2.81588 30.9418 1.16658 30.7512C0.576588 30.6831 0.107275 30.0977 0.0536392 29.5123C-0.0938591 27.865 0.160911 25.9725 0.0536392 24.298C0.147502 23.767 0.54977 23.3177 1.05931 23.1816L1.07272 23.1544Z" fill="white"/>
<path d="M25.8122 23.1544C27.5017 23.2769 29.5131 22.9502 31.1758 23.1544C31.7256 23.2224 32.1949 23.6717 32.2887 24.2299C32.1681 25.9726 32.4362 27.9058 32.2887 29.6212C32.2351 30.2066 31.739 30.6695 31.1758 30.7512C29.4997 30.6423 27.6224 30.901 25.9597 30.7512C25.3563 30.6968 24.887 30.2202 24.7931 29.6212C24.9272 27.933 24.6054 25.9453 24.7931 24.2844C24.8602 23.7398 25.3027 23.3041 25.8122 23.168V23.1544Z" fill="white"/>
<path d="M120.587 15.9796C120.587 6.49034 126.232 0.5 134.559 0.5C142.886 0.5 148.571 6.49034 148.571 15.9796C148.571 25.4688 142.886 31.5 134.559 31.5C126.232 31.5 120.587 25.4144 120.587 15.9796ZM142.792 15.9796C142.792 9.33575 139.654 5.4148 134.559 5.4148C129.463 5.4148 126.326 9.33575 126.326 15.9796C126.326 22.6234 129.463 26.5852 134.559 26.5852C139.654 26.5852 142.792 22.5826 142.792 15.9796Z" fill="#F2F3F7"/>
</g>
<defs>
<clipPath id="clip0_55_195">
<rect width="227" height="31" fill="white" transform="translate(0 0.5)"/>
</clipPath>
</defs>
</svg>
